{
  "accessors": [
    {
      "bufferView": 2,
      "componentType": 5126,
      "count": 4539,
      "max": [
        1.8567869663238525,
        8.111137390136719,
        25.556381225585938
      ],
      "min": [
        -15.684524536132813,
        -6.789176940917969,
        -0.42722898721694946
      ],
      "type": "VEC3"
    },
    {
      "bufferView": 2,
      "byteOffset": 54468,
      "componentType": 5126,
      "count": 4539,
      "max": [
        0.9999536275863647,
        1.0,
        0.9911729097366333
      ],
      "min": [
        -0.9999927878379822,
        -1.0,
        -0.991173267364502
      ],
      "type": "VEC3"
    },
    {
      "bufferView": 1,
      "componentType": 5126,
      "count": 4539,
      "max": [
        0.9732199907302856,
        1.0
      ],
      "min": [
        0.008391999639570713,
        0.0
      ],
      "type": "VEC2"
    },
    {
      "bufferView": 0,
      "componentType": 5125,
      "count": 6738,
      "type": "SCALAR"
    }
  ],
  "asset": {
    "extras": {
      "author": "Kurnazart (https://sketchfab.com/Kurnazart)",
      "license": "CC-BY-4.0 (http://creativecommons.org/licenses/by/4.0/)",
      "source": "https://sketchfab.com/3d-models/props-plantas-f64465cd9f00419c87add2d8294a2733",
      "title": "Props - Plantas"
    },
    "generator": "Sketchfab-12.68.0",
    "version": "2.0"
  },
  "bufferViews": [
    {
      "buffer": 0,
      "byteLength": 26952,
      "name": "floatBufferViews",
      "target": 34963
    },
    {
      "buffer": 0,
      "byteLength": 36312,
      "byteOffset": 26952,
      "byteStride": 8,
      "name": "floatBufferViews",
      "target": 34962
    },
    {
      "buffer": 0,
      "byteLength": 108936,
      "byteOffset": 63264,
      "byteStride": 12,
      "name": "floatBufferViews",
      "target": 34962
    }
  ],
  "buffers": [
    {
      "byteLength": 172200,
      "uri": "scene.bin"
    }
  ],
  "images": [
    {
      "uri": "textures/bamboophong1SG_baseColor.png"
    }
  ],
  "materials": [
    {
      "alphaMode": "BLEND",
      "doubleSided": true,
      "name": "bamboophong1SG",
      "pbrMetallicRoughness": {
        "baseColorTexture": {
          "index": 0
        },
        "metallicFactor": 0.0,
        "roughnessFactor": 0.6
      }
    }
  ],
  "meshes": [
    {
      "name": "Object_0",
      "primitives": [
        {
          "attributes": {
            "NORMAL": 1,
            "POSITION": 0,
            "TEXCOORD_0": 2
          },
          "indices": 3,
          "material": 0,
          "mode": 4
        }
      ]
    }
  ],
  "nodes": [
    {
      "children": [
        1
      ],
      "matrix": [
        1.0,
        0.0,
        0.0,
        0.0,
        0.0,
        2.220446049250313e-16,
        -1.0,
        0.0,
        0.0,
        1.0,
        2.220446049250313e-16,
        0.0,
        0.0,
        0.0,
        0.0,
        1.0
      ],
      "name": "Sketchfab_model"
    },
    {
      "children": [
        2
      ],
      "name": "26313d54f7a843d78994b22e9d2f15a7.obj.cleaner.materialmerger.gles"
    },
    {
      "mesh": 0,
      "name": "Object_2"
    }
  ],
  "samplers": [
    {
      "magFilter": 9729,
      "minFilter": 9987,
      "wrapS": 10497,
      "wrapT": 10497
    }
  ],
  "scene": 0,
  "scenes": [
    {
      "name": "Sketchfab_Scene",
      "nodes": [
        0
      ]
    }
  ],
  "textures": [
    {
      "sampler": 0,
      "source": 0
    }
  ]
}
